<svg xmlns="http://www.w3.org/2000/svg" viewBox="0 0 308.000 308.000" width="308.000" height="308.000">
  <path d="M 244.903,298.375 L 63.097,298.375 C 33.567,298.375 9.625,274.435 9.625,244.903 L 9.625,63.097 C 9.625,33.565 33.567,9.625 63.097,9.625 L 244.903,9.625 C 274.435,9.625 298.375,33.565 298.375,63.097 L 298.375,244.903 C 298.375,274.435 274.435,298.375 244.903,298.375" fill="#FFFC00" fill-rule="nonzero"/>
  <path d="M 212.178,184.056 C 198.104,161.394 169.564,161.151 155.877,184.059 L 123.741,237.858 C 119.297,245.298 124.656,254.742 133.323,254.742 C 137.238,254.742 140.869,252.690 142.888,249.336 L 174.643,196.559 C 179.335,188.744 188.717,188.744 193.410,196.559 L 225.085,249.314 C 227.107,252.683 230.750,254.742 234.679,254.742 C 243.368,254.742 248.744,245.271 244.287,237.812 L 212.178,184.056" fill="#000000" fill-rule="nonzero"/>
  <path d="M 78.790,124.013 C 71.353,119.576 61.915,124.937 61.915,133.597 C 61.915,137.515 63.970,141.143 67.327,143.160 L 120.139,174.896 C 127.960,179.583 127.960,188.960 120.139,193.648 L 67.351,225.302 C 63.980,227.323 61.915,230.966 61.915,234.896 C 61.915,243.580 71.379,248.953 78.836,244.504 L 132.649,212.402 C 155.328,198.338 155.574,169.819 132.649,156.142 L 78.790,124.013" fill="#000000" fill-rule="nonzero"/>
  <path d="M 254.415,81.947 C 254.415,73.266 244.951,67.890 237.494,72.339 L 183.681,104.441 C 161.002,118.505 160.757,147.024 183.681,160.701 L 237.540,192.830 C 244.978,197.267 254.415,191.906 254.415,183.246 C 254.415,179.331 252.360,175.700 249.004,173.683 L 196.191,141.950 C 188.368,137.260 188.371,127.885 196.191,123.195 L 248.979,91.543 C 252.351,89.520 254.415,85.879 254.415,81.947" fill="#000000" fill-rule="nonzero"/>
  <path d="M 81.764,62.245 C 73.075,62.245 67.700,71.718 72.156,79.178 L 104.265,132.931 C 118.342,155.593 146.880,155.838 160.567,132.928 L 192.705,79.132 C 197.146,71.692 191.788,62.245 183.123,62.245 C 179.205,62.245 175.574,64.297 173.556,67.654 L 141.800,120.428 C 137.111,128.246 127.726,128.244 123.034,120.428 L 91.361,67.676 C 89.337,64.307 85.694,62.245 81.764,62.245" fill="#000000" fill-rule="nonzero"/>
</svg>
