<svg xmlns="http://www.w3.org/2000/svg" viewBox="0 0 588.263 129.783" width="588.263" height="129.783">
  <path d="M 443.456,124.320 C 447.332,123.417 450.223,119.948 450.223,115.796 C 450.223,110.958 446.305,107.045 441.467,107.045 C 441.377,107.045 396.982,107.050 396.982,107.050 C 395.270,107.050 393.983,105.653 393.983,104.045 C 393.983,104.045 393.827,14.040 393.827,14.006 C 393.827,9.207 389.945,5.246 385.057,5.246 C 380.293,5.246 376.426,9.050 376.308,13.785 C 376.306,13.855 376.297,108.964 376.297,108.964 C 376.297,117.913 383.334,124.556 392.068,124.556 C 392.068,124.556 441.669,124.540 441.761,124.541 C 442.425,124.549 443.399,124.333 443.456,124.320" fill="#ffffff" fill-rule="nonzero"/>
  <path d="M 97.671,81.144 C 88.897,67.018 71.106,66.865 62.574,81.146 L 42.541,114.682 C 39.771,119.320 43.112,125.208 48.514,125.209 C 50.955,125.209 53.218,123.928 54.477,121.837 L 74.273,88.938 C 77.197,84.066 83.046,84.066 85.971,88.938 L 105.716,121.824 C 106.978,123.924 109.248,125.209 111.698,125.209 C 117.114,125.208 120.465,119.304 117.688,114.654 L 97.671,81.144" fill="#FFFC00" fill-rule="nonzero"/>
  <path d="M 14.520,43.714 C 9.884,40.948 4.000,44.290 4.000,49.689 C 4.000,52.130 5.281,54.393 7.374,55.650 L 40.296,75.432 C 45.172,78.355 45.171,84.200 40.296,87.122 L 7.389,106.855 C 5.287,108.115 4.000,110.385 4.000,112.836 C 4.001,118.249 9.900,121.599 14.548,118.826 L 48.095,98.814 C 62.231,90.046 62.386,72.268 48.095,63.742 L 14.520,43.714" fill="#FFFC00" fill-rule="nonzero"/>
  <path d="M 124.000,17.491 C 124.000,12.078 118.100,8.728 113.452,11.501 L 79.905,31.513 C 65.769,40.280 65.615,58.059 79.905,66.584 L 113.480,86.613 C 118.117,89.379 124.000,86.037 124.000,80.638 C 124.000,78.197 122.719,75.934 120.627,74.677 L 87.705,54.895 C 82.829,51.972 82.829,46.127 87.705,43.204 L 120.612,23.472 C 122.714,22.212 124.000,19.941 124.000,17.491" fill="#FFFC00" fill-rule="nonzero"/>
  <path d="M 16.373,5.209 C 10.956,5.209 7.606,11.114 10.383,15.764 L 30.400,49.274 C 39.174,63.400 56.965,63.553 65.497,49.272 L 85.530,15.735 C 88.300,11.098 84.959,5.209 79.557,5.209 C 77.116,5.209 74.853,6.489 73.594,8.581 L 53.798,41.479 C 50.874,46.352 45.025,46.351 42.100,41.479 L 22.354,8.594 C 21.093,6.494 18.823,5.209 16.373,5.209" fill="#FFFC00" fill-rule="nonzero"/>
  <path d="M 260.718,10.788 C 262.422,6.317 267.627,4.000 272.095,5.878 C 276.567,7.581 278.919,12.698 277.006,17.384 L 238.014,116.674 C 236.096,121.362 231.650,124.579 226.508,124.560 C 221.496,124.542 217.042,121.445 215.002,116.466 L 176.009,17.384 C 174.310,12.698 176.447,7.581 180.920,5.878 C 185.536,4.045 190.509,6.317 192.426,10.788 L 223.532,89.938 C 223.969,91.060 224.958,93.762 226.676,93.772 C 228.467,93.783 228.977,91.300 229.482,89.938 L 260.718,10.788" fill="#ffffff" fill-rule="nonzero"/>
  <path d="M 575.525,5.228 C 580.210,5.230 584.263,9.350 584.263,14.036 L 584.263,115.657 C 584.263,120.642 580.394,124.548 575.524,124.548 C 570.654,124.548 566.791,120.570 566.786,115.886 L 566.786,14.036 C 566.786,8.933 570.837,5.228 575.525,5.228" fill="#ffffff" fill-rule="nonzero"/>
  <path d="M 481.583,22.765 C 479.467,22.765 478.555,24.542 478.583,25.939 L 478.583,104.036 C 478.583,105.348 479.526,107.036 481.583,107.036 L 492.484,107.036 C 515.705,106.821 533.262,86.806 533.262,64.907 C 533.262,42.759 515.831,23.626 492.514,22.765 L 481.583,22.765 M 492.648,5.253 C 525.027,6.111 551.011,32.524 550.804,65.115 C 550.804,96.527 525.737,122.740 494.183,124.556 L 469.844,124.556 C 465.157,124.556 461.105,120.815 461.105,115.613 L 461.105,13.992 C 461.105,9.224 465.028,5.228 469.845,5.228 L 492.648,5.253" fill="#ffffff" fill-rule="evenodd"/>
  <path d="M 280.103,118.994 C 278.399,123.465 273.194,125.783 268.726,123.904 C 264.254,122.201 261.902,117.085 263.815,112.398 L 302.807,13.108 C 304.725,8.420 309.171,5.203 314.313,5.222 C 319.325,5.240 323.779,8.337 325.819,13.316 L 364.813,112.398 C 366.511,117.085 364.374,122.201 359.901,123.904 C 355.285,125.737 350.312,123.465 348.395,118.994 L 317.289,39.844 C 316.852,38.723 315.863,36.020 314.145,36.010 C 312.354,35.999 311.844,38.482 311.339,39.844 L 280.103,118.994" fill="#ffffff" fill-rule="nonzero"/>
</svg>
